HIERARCHY
ROOT Hips
{
  OFFSET 5.84602e-005 68.8428 3.50346
  CHANNELS 6 Xposition Yposition Zposition Zrotation Xrotation Yrotation
  JOINT Spine
  {
    OFFSET 0 8.597 -4.6522
    CHANNELS 3 Zrotation Xrotation Yrotation
    JOINT Spine1
    {
      OFFSET 0 7.8454 0.4098
      CHANNELS 3 Zrotation Xrotation Yrotation
      JOINT Spine2
      {
        OFFSET 0 9.7078 -2.1609
        CHANNELS 3 Zrotation Xrotation Yrotation
        JOINT Neck
        {
          OFFSET 0 21.8761 -0.4549
          CHANNELS 3 Zrotation Xrotation Yrotation
          JOINT Head
          {
            OFFSET 0 12.3537 3.3602
            CHANNELS 3 Zrotation Xrotation Yrotation
            End Site
            {
              OFFSET 0.0001 18.9506 0.5657
            }
          }
        }
        JOINT LeftShoulder
        {
          OFFSET 2.2086 21.1115 7.2329
          CHANNELS 3 Zrotation Xrotation Yrotation
          JOINT LeftArm
          {
            OFFSET 13.1193 3.0282 -4.8998
            CHANNELS 3 Zrotation Xrotation Yrotation
            JOINT LeftForeArm
            {
              OFFSET 27.4081 -0.0973053 -0.2375
              CHANNELS 3 Zrotation Xrotation Yrotation
              JOINT LeftHand
              {
                OFFSET 22.8641 0.0662994 -0.1369
                CHANNELS 3 Zrotation Xrotation Yrotation
                JOINT LeftHandIndex1
                {
                  OFFSET 8.8614 0.775009 2.4612
                  CHANNELS 3 Zrotation Xrotation Yrotation
                  JOINT LeftHandIndex2
                  {
                    OFFSET 3.3146 -0.808304 0.5841
                    CHANNELS 3 Zrotation Xrotation Yrotation
                    JOINT LeftHandIndex3
                    {
                      OFFSET 2.2628 -0.552002 0.3989
                      CHANNELS 3 Zrotation Xrotation Yrotation
                      End Site
                      {
                        OFFSET 1.6102 -0.4807 0.2612
                      }
                    }
                  }
                }
                JOINT LeftHandMiddle1
                {
                  OFFSET 8.9937 0.895004 0.2143
                  CHANNELS 3 Zrotation Xrotation Yrotation
                  JOINT LeftHandMiddle2
                  {
                    OFFSET 4.0984 0.0113983 -0.0242
                    CHANNELS 3 Zrotation Xrotation Yrotation
                    JOINT LeftHandMiddle3
                    {
                      OFFSET 2.2716 0.00689697 -0.0138001
                      CHANNELS 3 Zrotation Xrotation Yrotation
                      End Site
                      {
                        OFFSET 2.0404 -0.1441 0.0027
                      }
                    }
                  }
                }
                JOINT LeftHandRing1
                {
                  OFFSET 8.5234 0.597198 -2.0164
                  CHANNELS 3 Zrotation Xrotation Yrotation
                  JOINT LeftHandRing2
                  {
                    OFFSET 3.7188 -0.188293 -0.2328
                    CHANNELS 3 Zrotation Xrotation Yrotation
                    JOINT LeftHandRing3
                    {
                      OFFSET 2.1191 -0.106598 -0.1332
                      CHANNELS 3 Zrotation Xrotation Yrotation
                      End Site
                      {
                        OFFSET 1.8737 -0.2304 -0.0886
                      }
                    }
                  }
                }
                JOINT LeftHandPinky1
                {
                  OFFSET 7.9094 -0.601089 -3.4825
                  CHANNELS 3 Zrotation Xrotation Yrotation
                  JOINT LeftHandPinky2
                  {
                    OFFSET 2.2874 -0.477005 -0.6314
                    CHANNELS 3 Zrotation Xrotation Yrotation
                    JOINT LeftHandPinky3
                    {
                      OFFSET 1.6774 -0.349396 -0.4633
                      CHANNELS 3 Zrotation Xrotation Yrotation
                      End Site
                      {
                        OFFSET 1.4888 -0.4091 -0.3416
                      }
                    }
                  }
                }
                JOINT LeftHandThumb1
                {
                  OFFSET 1.833 -1.3875 1.3896
                  CHANNELS 3 Zrotation Xrotation Yrotation
                  JOINT LeftHandThumb2
                  {
                    OFFSET 3.4129 -1.121 2.5732
                    CHANNELS 3 Zrotation Xrotation Yrotation
                    JOINT LeftHandThumb3
                    {
                      OFFSET 2.2474 -0.804199 1.6192
                      CHANNELS 3 Zrotation Xrotation Yrotation
                      End Site
                      {
                        OFFSET 1.6527 -0.5689 1.1317
                      }
                    }
                  }
                }
              }
            }
          }
        }
        JOINT RightShoulder
        {
          OFFSET -2.2086 21.1115 7.2329
          CHANNELS 3 Zrotation Xrotation Yrotation
          JOINT RightArm
          {
            OFFSET -13.1216 3.0287 -4.9007
            CHANNELS 3 Zrotation Xrotation Yrotation
            JOINT RightForeArm
            {
              OFFSET -27.4081 -0.0973053 -0.2375
              CHANNELS 3 Zrotation Xrotation Yrotation
              JOINT RightHand
              {
                OFFSET -22.8641 0.0664063 -0.1369
                CHANNELS 3 Zrotation Xrotation Yrotation
                JOINT RightHandIndex1
                {
                  OFFSET -8.8614 0.774994 2.4612
                  CHANNELS 3 Zrotation Xrotation Yrotation
                  JOINT RightHandIndex2
                  {
                    OFFSET -3.3146 -0.808304 0.5841
                    CHANNELS 3 Zrotation Xrotation Yrotation
                    JOINT RightHandIndex3
                    {
                      OFFSET -2.2628 -0.552002 0.3989
                      CHANNELS 3 Zrotation Xrotation Yrotation
                      End Site
                      {
                        OFFSET -1.6102 -0.4807 0.2612
                      }
                    }
                  }
                }
                JOINT RightHandMiddle1
                {
                  OFFSET -8.9937 0.894989 0.2143
                  CHANNELS 3 Zrotation Xrotation Yrotation
                  JOINT RightHandMiddle2
                  {
                    OFFSET -4.0984 0.0113983 -0.0242
                    CHANNELS 3 Zrotation Xrotation Yrotation
                    JOINT RightHandMiddle3
                    {
                      OFFSET -2.2716 0.00691223 -0.0138001
                      CHANNELS 3 Zrotation Xrotation Yrotation
                      End Site
                      {
                        OFFSET -2.0404 -0.1441 0.0027
                      }
                    }
                  }
                }
                JOINT RightHandRing1
                {
                  OFFSET -8.5234 0.597198 -2.0164
                  CHANNELS 3 Zrotation Xrotation Yrotation
                  JOINT RightHandRing2
                  {
                    OFFSET -3.7188 -0.188309 -0.2328
                    CHANNELS 3 Zrotation Xrotation Yrotation
                    JOINT RightHandRing3
                    {
                      OFFSET -2.1191 -0.106598 -0.1332
                      CHANNELS 3 Zrotation Xrotation Yrotation
                      End Site
                      {
                        OFFSET -1.8737 -0.2304 -0.0886
                      }
                    }
                  }
                }
                JOINT RightHandPinky1
                {
                  OFFSET -7.9094 -0.601105 -3.4825
                  CHANNELS 3 Zrotation Xrotation Yrotation
                  JOINT RightHandPinky2
                  {
                    OFFSET -2.2874 -0.477005 -0.6314
                    CHANNELS 3 Zrotation Xrotation Yrotation
                    JOINT RightHandPinky3
                    {
                      OFFSET -1.6774 -0.349396 -0.4633
                      CHANNELS 3 Zrotation Xrotation Yrotation
                      End Site
                      {
                        OFFSET -1.4888 -0.4091 -0.3416
                      }
                    }
                  }
                }
                JOINT RightHandThumb1
                {
                  OFFSET -1.833 -1.38751 1.3896
                  CHANNELS 3 Zrotation Xrotation Yrotation
                  JOINT RightHandThumb2
                  {
                    OFFSET -3.41299 -1.12099 2.5732
                    CHANNELS 3 Zrotation Xrotation Yrotation
                    JOINT RightHandThumb3
                    {
                      OFFSET -2.24741 -0.804108 1.6192
                      CHANNELS 3 Zrotation Xrotation Yrotation
                      End Site
                      {
                        OFFSET -1.6527 -0.5689 1.1317
                      }
                    }
                  }
                }
              }
            }
          }
        }
      }
    }
  }
  JOINT RightUpLeg
  {
    OFFSET -9.1966 3.8861 -0.7581
    CHANNELS 3 Zrotation Xrotation Yrotation
    JOINT RightLeg
    {
      OFFSET -0.7359 -41.0265 0
      CHANNELS 3 Zrotation Xrotation Yrotation
      JOINT RightFoot
      {
        OFFSET 0 -40.2855 0
        CHANNELS 3 Zrotation Xrotation Yrotation
        JOINT RightToeBase
        {
          OFFSET 0 -5.6122 11.7359
          CHANNELS 3 Zrotation Xrotation Yrotation
          End Site
          {
            OFFSET 0 0 7.8731
          }
        }
      }
    }
  }
  JOINT LeftUpLeg
  {
    OFFSET 9.1965 3.8864 -0.7581
    CHANNELS 3 Zrotation Xrotation Yrotation
    JOINT LeftLeg
    {
      OFFSET 0.7359 -41.0268 0
      CHANNELS 3 Zrotation Xrotation Yrotation
      JOINT LeftFoot
      {
        OFFSET 0 -40.2855 0
        CHANNELS 3 Zrotation Xrotation Yrotation
        JOINT LeftToeBase
        {
          OFFSET 0 -5.6122 11.7359
          CHANNELS 3 Zrotation Xrotation Yrotation
          End Site
          {
            OFFSET 0 0 7.8731
          }
        }
      }
    }
  }
}
MOTION
Frames:	5
Frame Time:	0.0333333
5.84602e-005 68.8428 3.50346 0 0 -0 0 0 -0 0 0 -0 0 0 -0 0 0 -0 0 0 -0 0 0 -0 0 0 -0 0 0 -0 0 0 -0 0 0 -0 0 0 -0 0 0 -0 0 0 -0 -0.0146107 -8.87603e-005 -2.63497e-007 2.99804e-018 -2.42657e-020 -1.42182e-022 0 0 -0 -0.0187562 -0.001176 5.858e-005 5.06224e-018 3.88251e-019 1.21329e-020 0 0 -0 -0.012269 -0.00324817 0.000675346 -1.74678e-018 3.88251e-019 -0 0 0 -0 0 0 -0 0 0 -0 0 0 -0 0 0 -0 0 0 -0 0 0 -0 0 0 -0 0 0 -0 0 0 -0 0 0 -0 0.0149955 -9.10982e-005 2.64101e-007 -9.69331e-018 1.21329e-020 -4.7394e-023 0 0 -0 0.0189956 -0.00119102 -5.96516e-005 -5.41541e-019 0 2.42657e-020 0 0 -0 0.0122698 -0.00324857 -0.000673756 -2.00796e-019 0 -1.94126e-019 0 0 -0 0 0 -0 0 0 -0 3.39842 1.33031 -0.0637918 -5.65207e-008 0.834868 -0.000436188 -3.39935 -2.16518 -0.0642563 -8.89002e-024 -1.18485e-023 -1.48106e-024 -3.39844 1.35642 0.0640283 -3.18788e-007 0.782166 -0.000588827 3.39931 -2.13858 0.0634662 1.1399e-023 0 -0 
25.4975 23.1911 -57.4841 113.312 54.832 -179.975 0.677839 2.09839 -0.34469 1.3697 4.19249 -0.714948 1.36968 4.19251 -0.714946 -0.0084979 30.295 1.27338e-005 0.116574 3.26941 7.38978 -14.7164 0.0295295 -37.3293 -28.8775 -13.8719 -12.1457 7.68698 -11.2944 -17.9667 13.4729 -12.9704 -18.3239 4.06825e-007 1.74323e-007 3.35298e-006 2.11868e-030 -1.27222e-014 9.54166e-015 -1.07391e-006 -1.39687e-007 3.03627e-006 4.06825e-007 1.74323e-007 3.35298e-006 -0.0146331 -8.97823e-005 3.77751e-006 4.07054e-007 1.73896e-007 3.353e-006 4.06825e-007 1.74323e-007 3.35298e-006 -0.0186681 -0.00117423 5.82569e-005 -1.07504e-006 -1.40254e-007 3.03627e-006 4.06825e-007 1.74323e-007 3.35298e-006 -0.0122771 -0.00324478 0.000680623 4.07111e-007 1.74012e-007 3.35297e-006 4.06825e-007 1.74323e-007 3.35298e-006 2.11868e-030 -1.27222e-014 9.54166e-015 -1.07391e-006 -1.39687e-007 3.03627e-006 -0.250294 7.26817 14.8084 32.6888 22.2052 16.3446 30.6566 0.805514 88.9759 30.8253 -8.00548 3.43266 -3.18055e-015 -3.18055e-015 -0 3.18055e-015 -6.36111e-015 4.77083e-015 -3.82402e-007 4.79065e-007 -5.89746e-007 -3.18055e-015 -3.18055e-015 -0 0.0150278 -8.806e-005 -3.39097e-006 -3.82392e-007 4.78987e-007 -5.89808e-007 -3.18055e-015 -3.18055e-015 -0 0.0190183 -0.00119121 -5.54598e-005 -3.82396e-007 4.78966e-007 -5.89821e-007 -3.18055e-015 -3.18055e-015 -0 0.0122347 -0.00323539 -0.000676065 -3.82413e-007 4.78997e-007 -5.89787e-007 -3.18055e-015 -3.18055e-015 -0 3.18055e-015 -6.36111e-015 4.77083e-015 -3.82402e-007 4.79065e-007 -5.89746e-007 0.564097 -15.3112 3.92467 32.0373 37.1184 -29.9835 -6.65322 18.5278 -9.10059 -2.4706e-008 2.16695e-007 -1.96381e-007 1.61746 19.2552 0.105513 -3.39367 49.4753 4.50511 4.86075 4.21173 0.120819 3.85831e-007 1.58401e-006 -2.14241e-006 
42.8122 -1.25381 -76.3776 83.3332 -1.49356 -179.979 0.995488 2.99111 -0.518072 2.02219 5.97261 -1.09041 2.02218 5.97262 -1.09041 -0.0128139 44.1523 0.000374648 -0.106458 4.59529 10.7747 -21.4444 0.310991 -54.198 -43.6653 -19.6772 -18.0669 8.84694 -15.4827 -26.4744 16.7847 -17.7237 -27.2613 -8.00021e-032 -5.76476e-015 -7.95139e-016 0 1.98785e-016 -0 -3.19421e-007 2.74038e-007 -6.9166e-008 -8.00021e-032 -5.76476e-015 -7.95139e-016 -0.0146427 -9.15989e-005 8.67655e-007 -3.19419e-007 2.74047e-007 -6.91307e-008 -8.00021e-032 -5.76476e-015 -7.95139e-016 -0.0187854 -0.00117765 5.62989e-005 -3.19419e-007 2.7405e-007 -6.91178e-008 -8.00021e-032 -5.76476e-015 -7.95139e-016 -0.0122851 -0.00325189 0.000682996 -3.19419e-007 2.74048e-007 -6.91276e-008 -8.00021e-032 -5.76476e-015 -7.95139e-016 0 1.98785e-016 -0 -3.19421e-007 2.74038e-007 -6.9166e-008 -1.54972 10.3366 21.6198 42.7457 30.7276 25.7137 51.2826 -30.8971 114.407 45.0156 -11.5849 5.03154 4.5987e-007 4.72822e-007 -5.33813e-007 9.1974e-007 9.45644e-007 -1.06763e-006 4.5987e-007 4.72822e-007 -5.33813e-007 4.5987e-007 4.72822e-007 -5.33813e-007 0.014909 -9.10422e-005 -2.19664e-006 4.59857e-007 4.72753e-007 -5.33874e-007 4.5987e-007 4.72822e-007 -5.33813e-007 0.0190014 -0.0011894 -5.79032e-005 4.59848e-007 4.72735e-007 -5.33896e-007 4.5987e-007 4.72822e-007 -5.33813e-007 0.0123036 -0.00326346 -0.000676428 4.59842e-007 4.7277e-007 -5.33876e-007 4.5987e-007 4.72822e-007 -5.33813e-007 9.1974e-007 9.45644e-007 -1.06763e-006 4.5987e-007 4.72822e-007 -5.33813e-007 0.376805 -23.7766 5.96547 63.6474 46.5289 -54.5362 -6.25367 27.0448 -14.291 -1.168e-005 -5.39926e-007 -7.25951e-007 3.83653 28.9747 -0.00303388 -8.37873 67.7327 9.5015 5.74906 8.95163 0.103024 3.97569e-016 -3.18055e-015 -1.49089e-015 
39.3419 4.72452 -72.6682 89.9956 11.0232 -179.98 0.92286 2.68512 -0.47034 1.87091 5.3622 -0.985599 1.8709 5.3622 -0.985598 -0.0123402 41.57 0.00078615 -0.046695 4.07785 10.1117 -20.2639 0.942399 -50.6098 -39.7953 -18.5745 -16.457 8.76636 -14.6515 -24.3493 16.1917 -16.7586 -25.2257 4.24315e-007 -3.09011e-007 9.58326e-008 8.19109e-007 1.48141e-006 -2.28177e-008 1.69726e-007 -1.23604e-007 3.8333e-008 4.24315e-007 -3.09011e-007 9.58326e-008 -0.0146827 -8.68858e-005 7.64244e-006 1.69726e-007 -1.23609e-007 3.83171e-008 4.24315e-007 -3.09011e-007 9.58326e-008 -0.0187248 -0.0011728 5.97414e-005 1.69726e-007 -1.23611e-007 3.83111e-008 4.24315e-007 -3.09011e-007 9.58326e-008 -0.0122648 -0.00324464 0.000681194 1.69726e-007 -1.23609e-007 3.8315e-008 4.24315e-007 -3.09011e-007 9.58326e-008 8.19109e-007 1.48141e-006 -2.28177e-008 1.69726e-007 -1.23604e-007 3.8333e-008 -1.10494 10.1189 20.019 40.795 28.9676 23.4653 45.3685 -22.8633 109.557 41.8446 -10.7914 4.67167 -6.36111e-015 1.59028e-015 5.1684e-015 6.36111e-015 1.59028e-015 5.1684e-015 1.54487e-031 3.18055e-015 -2.78299e-015 -6.36111e-015 1.59028e-015 5.1684e-015 0.0149564 -0.000102397 -2.57212e-006 3.18055e-015 6.36111e-015 1.98785e-015 -6.36111e-015 1.59028e-015 5.1684e-015 0.0188803 -0.00118501 -5.47006e-005 -4.8553e-031 6.36111e-015 4.37326e-015 -6.36111e-015 1.59028e-015 5.1684e-015 0.0123357 -0.0032614 -0.000676718 3.18055e-015 -4.77083e-015 -1.19271e-015 -6.36111e-015 1.59028e-015 5.1684e-015 6.36111e-015 1.59028e-015 5.1684e-015 1.54487e-031 3.18055e-015 -2.78299e-015 0.302985 -22.0031 5.47109 55.7055 45.2962 -48.4139 -6.48209 25.2846 -13.0399 -3.8382e-006 1.10148e-006 8.00968e-007 3.37126 27.0596 -0.0202084 -6.62505 63.427 7.7332 5.49286 7.92763 0.109688 3.97569e-016 -3.97569e-016 2.14936e-015 
39.3419 4.72452 -72.6682 89.9956 11.0232 -179.98 0.92181 2.59676 -0.463915 1.86753 5.18559 -0.971154 1.86753 5.18559 -0.971152 -0.0123896 41.9771 0.000789562 -0.04934 3.89267 10.1858 -20.5079 1.49517 -50.7379 -39.4084 -18.6917 -16.253 8.81437 -14.6717 -24.1872 16.1917 -16.7587 -25.2257 -9.73194e-007 -1.30043e-006 -1.54175e-006 3.18055e-015 4.77083e-015 -9.54166e-015 -1.69679e-007 1.23613e-007 -3.85175e-008 -9.73194e-007 -1.30043e-006 -1.54175e-006 -0.0146653 -8.76437e-005 -3.24007e-006 -1.69679e-007 1.23618e-007 -3.85015e-008 -9.73194e-007 -1.30043e-006 -1.54175e-006 -0.0187699 -0.00117799 4.63886e-005 -1.69679e-007 1.2362e-007 -3.84955e-008 -9.73194e-007 -1.30043e-006 -1.54175e-006 -0.0123259 -0.0032614 0.000686419 -1.69679e-007 1.23618e-007 -3.84994e-008 -9.73194e-007 -1.30043e-006 -1.54175e-006 3.18055e-015 4.77083e-015 -9.54166e-015 -1.69679e-007 1.23613e-007 -3.85175e-008 -1.03146 10.471 19.959 40.795 28.9676 23.4653 45.3686 -22.8633 109.557 41.8446 -10.7914 4.67165 -3.18055e-015 -3.18055e-015 2.06736e-014 -3.18055e-015 -3.18055e-015 1.66979e-014 3.18055e-015 4.77083e-015 1.43125e-014 -3.18055e-015 -3.18055e-015 2.06736e-014 0.0149971 -8.83451e-005 -4.02847e-006 1.98626e-031 4.77083e-015 -2.38542e-015 -3.18055e-015 -3.18055e-015 2.06736e-014 0.0188744 -0.00118768 -5.64078e-005 -2.91715e-008 2.69151e-007 3.42947e-007 -3.18055e-015 -3.18055e-015 2.06736e-014 0.0123322 -0.00326318 -0.000680275 2.20695e-032 -3.18055e-015 3.97569e-016 -3.18055e-015 -3.18055e-015 2.06736e-014 -3.18055e-015 -3.18055e-015 1.66979e-014 3.18055e-015 4.77083e-015 1.43125e-014 0.302985 -22.0031 5.47109 55.7055 45.2962 -48.4139 -6.48209 25.2846 -13.0399 -3.8382e-006 1.10148e-006 8.00968e-007 3.37126 27.0596 -0.0202084 -6.62505 63.427 7.7332 5.49286 7.92763 0.109688 3.97569e-016 -3.97569e-016 2.14936e-015 
